<svg id="Layer_1" data-name="Layer 1" xmlns="http://www.w3.org/2000/svg" viewBox="0 0 612 612"><defs><style>.cls-1{fill:#0661ad;}.cls-2{fill:#fdd400;}.cls-3{fill:#fff;}.cls-4{fill:#00192f;}</style></defs><circle class="cls-1" cx="299.86" cy="300.64" r="212.82"/><path class="cls-2" d="M605.57,212.62c-12.16-6.72-25.38-.6-38.39-2.3,10.37-6.68,24.63-9,31.35-20.45,2.5-2.91,2.79-4.34-1.32-6a16.45,16.45,0,0,0-6.45-1.14c-4.16.06-8.38,1.15-12.31.07.91-2.34,3.24-5.88,3.58-8.33.28-2.17-.12-2.39-1.94-3.65a17.37,17.37,0,0,0-2.68-1.42c-5.08-2.05-11.24-.16-16.43.59-13.63,2.18-26.4,6.75-39.22,11.61-6.9,2.63-18,10.06-24.41,3.45-4.05-4.22-6.8-9.8-10-14.59-3.89-5.81-7.94-11.51-12.22-16.81-28.38-34.7-71.86-58.33-114.93-69.12a226.56,226.56,0,0,0-124.5,4.29,222.9,222.9,0,0,0-112.83,82.8c-3.53,5.08-6.95,10.33-10.2,15.47-1.82,3.19-6.43,13.69-9.62,14.09-3.36.52-10.1-4.38-12.9-6-4.27-2.33-8.38-4.78-13-6.43s-9.47-1.59-14-3.24A68.52,68.52,0,0,1,52.11,180a51.81,51.81,0,0,0-11.64-4.84c-1.25-.4-5.76-1.59-6.67-.73-.86.57-.91,6-1.14,7.18-6.56-2-13.12-4.09-19.51-6.25,1.72,7.75,6.8,12.77,11.37,18.87-4.62.11-19-8.83-14.71,3.15,3.72,10.37,14.9,14.52,21.81,22.27-2.22.75-4.62,1.61-6.84,2.35-3,1-3.48.34-3,3.25.57,4.56,5,7.53,8.45,9.69,3.94,2.56,8.1,4.72,12.27,6.89,4.05,2,9.47,3.81,12.89,6.71,4.85,3.93-4.33,4.63-4.72,8.11-.29,2.17,5.08,6.49,6.73,7.86,5.88,4.73,13.53,6.55,20.94,7.28-1.42,2.68-3.87,6.05-4.72,8.84-.74,2.23-.57,2.12,1.26,4.11.74.74,1.2,1.42,1.94,2.16,2.17,2.51,3.42,3.65,3.48,7.07,0,3-.16,6.05,0,9.18a257,257,0,0,0,3.34,34.62c3.9,22.86,10.82,46.18,21.34,67.1,10.34,20.29,24.73,38.13,40.37,54.88,2.69,2.91,11.7,9.74,11.88,13.34a3.46,3.46,0,0,1-.13,1.09c1.45,1.06,1.06,3.92-1.22,3.92a2.16,2.16,0,0,1-1-.24c-1.19,1.45-2.53,2.84-3.24,3.9-1.88,2.74-4.61,7.53-1.13,9.41,2.82,1.61,7.86-1,11.08-2.3a1.31,1.31,0,0,1-.19-.35,1.17,1.17,0,0,1,.81-1.42,15.25,15.25,0,0,1,1.78-.39c.32-.05.63-.07.95-.1l.25,0,.42-.07c.59-.09,1.18-.21,1.77-.31l.35-.06.18-.06h0a5.18,5.18,0,0,1,.84-.36,1,1,0,0,1,1.05.27l.57-.2c3.37-1.26,3.65-.46,6.56,1.31,3.54,2.33,7.08,4.66,10.5,6.83a232.51,232.51,0,0,0,22.2,12.12,213.35,213.35,0,0,0,45.59,16c31.77,7.21,64.73,7,96.66.7,8-1.66,16.14-3.61,24-5.9,3.76-1,10.09-4.51,13.74-4.23s9.36,7.35,12.38,10c3.14,2.84,16,17,20.32,11.89,4.1-5-8.46-19.32-11-23.08,3.08-.58,6-1,9.07-1.61-.43-1.92-1.26-4.27-1.8-6.48a2.27,2.27,0,0,1-.65.13,1.93,1.93,0,0,1-1.63-.78c-1.15-1.19-.66-3.72,1.47-3.72a1.59,1.59,0,0,1,.39.08c.24-1.59,1.24-2.12,3.23-3.26,5.42-3.37,10.72-6.17,15.79-10,9.74-7.25,18.4-15.76,27.29-23.92,15.39-14,26.95-31.11,36.91-49.14,9.45-17,17.07-34.41,22-53.29a189.31,189.31,0,0,0,5.16-28.18c.85-7.24-1.22-19.22,3.11-25.33,3.47-4.79,12.43-1.38,16.7-5.72,1.49-1.48-6.45-13-3.89-16.19s15.34,1.87,17.57.38a11.33,11.33,0,0,0,4.61-6c.85-2.79-.63-4.27-2.74-6.32-7-6.44-17.69-7.23-24.43-14.35,16.37-.3,31.71.08,46.65-7.92,6-3.25,7.8-9.42.1-11.69-5.59-1.7-11.64-.39-16.83-3.35C581.91,227.93,597.71,226,605.57,212.62ZM143,205a2.12,2.12,0,0,1,.7.14,50.93,50.93,0,0,1,3-5.41,124.83,124.83,0,0,1,8.71-14c27.79-39.09,73.73-64.35,120.61-71.92,52.51-8.38,107.67,5.71,149.34,39.2a192.35,192.35,0,0,1,30.77,31.62c1.09,1.26,3.2,3.31,3.77,4.9,1.71,1.09,1.66,2.11-.57,2.86-.68.45-1.08,1-1.76,1.42-2.8,2.12-5.65,4.51-8.44,6.63a170.13,170.13,0,0,1-16.35,12.16c-6.27,3.94-13.23,5.37-20,7.89a47.54,47.54,0,0,0-17,10.85c-10.83,10.45-28.34,9-42.48,10.08-11.57.81-27,4-36.39-4.86S310.21,217.31,312,206c1-6.33.28-12.54,3-18.53,2.5-5.88,6.95-11.07,10.65-16.27,5.12-7.13,10-14.32,15-21.63,2.1-3.14,4.5-6.22,6.6-9.36,1.88-2.74,4-4.39,1-6.61-.23.4-.57.62-.79,1C333.75,150.39,320.37,170,302,180.24c-17.84,9.95-35.85,22.22-47.18,39.69,5.93-.75,11.86-1.5,17.67-2.42-1.82,6.91-2.72,15.18-6.36,21.57-4.33,7.59-12.6,5.2-19.62,3.95-16.54-3.29-32.34-9.55-48.83-13.12-7.93-1.88-16.43-2.38-24.24-4.83-7.7-2.27-14.55-7.34-21.28-11.49-1.83-1.26-3.83-2.4-5.54-3.48-1-.61-1.73-1-2.26-1.35a2,2,0,0,1-1.43.57C140.16,209.33,140.16,205,143,205Zm63.73,216c-6.78,7.25-13.16,14.72-20.46,21.58-.33.33-1.11,1.16-1.91,2a1.11,1.11,0,0,1-1.07,1.41,1.07,1.07,0,0,1-.38-.07,2.23,2.23,0,0,1-1,.57c-1-.06-4.51-4.16-5.48-5.24q-5.06-4.78-9.59-9.92c-22.89-25-38.32-55.51-46.51-88.12-.92-3.59-2.06-8.27-3.09-14.25,6,3.87,11.64,8.54,18,11.44a27,27,0,0,0,9.24,2.73c3.2.34,7-1.43,9.7-1,2.45.34,4.9,3.65,7.7,4.5a14,14,0,0,0,8.5.51c3.25-.69,5.64-3,9-4,2.39-.85,1.71-.4,4.1,1a22.44,22.44,0,0,0,4.8,2c6.33,1.71,12.54-.47,18-3.84,3-1.77,5.35-3.82,9.18-3.66,3.36.23,8.33,4.33,11.29,3.58,1.08-.22,2.79-2.85,3.82-3.54a16.29,16.29,0,0,1,4-2.17c3.36-1.25,6.1-.86,9.58-.46,2.45.34,3,.74,5.65-.06,2.22-.75,4.33-1.66,6.55-2.41,4.16-1.54,8.32-3.08,12.6-4.46,2.52,8.21,6.4,17,1.39,25-2.39,3.82-6.21,6.62-9.34,9.7-3.87,3.83-7.75,7.65-11.34,11.53Zm94.85,70.91c-37.36-.77-58-9.47-72.56-17.55l.71-.88-.25,0h.09a5.34,5.34,0,0,1-1-.22l-.36-.12-.13,0h0a1.16,1.16,0,0,1-1.15-1.15,1.15,1.15,0,0,1,1.15-1.15,4.89,4.89,0,0,1,1.5.35l.2-.2c.34-.36.7-.71,1-1.07a11,11,0,0,1,1-1,1.19,1.19,0,0,1,1.58,0c3.62-4.64,7.34-9.42,11.46-13.22,2.51-2.17,1.94-1.55,5.13-1.95a13.84,13.84,0,0,0,4.22-1.09,20.84,20.84,0,0,0,8-5.08c2.57-2.45,3.36-4.22,6.84-5.31,3.82-1.32,7.81-2,11.57-3,6.56-1.66,13-4.24,19.85-2.88,6.27,1.25,12.95,2,19.05,4.09,5.25,1.94,8.34,10.26,11.71,14.93,3.65,4.73,9.18,4.5,13,8.66,5.37,5.81,9.08,13.22,13.31,19.55C341.74,492.5,319.21,492.47,301.53,491.92Zm163.08-84.23c-16.34,23.28-37,43-61.54,57.43-1.88,1.26-4.5,2.52-7.8,4.23-17.82-26.67-34.68-53.74-51.64-81-3.83-6.1-7.6-12.48-10.91-18.92-3.2-6.27-4.29-9.75-3.44-17q.59-5.22,1.19-10.44c.17-1.6.51-3.31.56-5.08.34-2.45-.11-2.39,1.88-3.48,3.53-2.11,9.81-.86,13.52-.12,2.56.51,5.24,1.19,7.81,1.7,1.14.23,2.8.11,3.59.57,2.57,1.25.69-.46,1.43,1.76,1.6,5.36-.5,10,7.31,10.2,3.08.17,6.27-1,9.12-1.89,3.14-.86,4.57-1.31,7.65-.4,2.51.79,5.08,2.78,7.36,4,.28.06,3,1.94,3.59,2.05.91-.12,3.14-2.34,4.11-2.74,5.07-2.4,9.75-.58,14.88-1,2.28-.29,4.68-1.15,6.78-1.32,2.57-.23,3.6.56,5.88,1.76,3.82,1.65,9.47,3.07,13,.22,1.94-1.55,2.34-5,4.39-6.4,1.71-1.14,5.08.57,7.47,1.19,3.08.91,6.33,1.71,9.35-.06a12.11,12.11,0,0,0,3.48-3.31,11.49,11.49,0,0,1,1.59-2.06c1.88-1.26,1.32-.63,3.54-.63,5.65-.06,10.1,1.42,15-2.35,2.28-1.77,3.07-4.28,5.07-6.11,1.65-1.6,4.33-1.66,6.44-2.57C490.51,355,481.81,383.09,464.61,407.69Z"/><path class="cls-3" d="M299.07,286.67a3.43,3.43,0,0,1-.21.5l2.37.48a3.3,3.3,0,0,0,.39-1l-.69-.69-1.62.06Z"/><polygon class="cls-3" points="292.12 286.85 292.3 287.18 289.77 287.64 289.52 286.71 290.1 286.27 290.98 286.36 291.44 286.35 292.12 286.85"/><path class="cls-3" d="M329.5,241.76a35.31,35.31,0,0,1-28.36,32.84l.36-2.54-12.23.17.43,2.55a35.16,35.16,0,0,1-29.24-31.32l-3.15.29a38.3,38.3,0,0,0,32.95,34.3l.63,3.68a6,6,0,0,0-1.48,4,6.38,6.38,0,0,0,.11,1c.21,0,.4,0,.61,0a12.61,12.61,0,0,1,2,.17,3.8,3.8,0,0,1-.23-1.17c0-.08,0-.15,0-.24l7.31-.09,0,.23a3.56,3.56,0,0,1-.18,1.09,14.79,14.79,0,0,1,1.52-.09c.36,0,.69,0,1,.05a5.49,5.49,0,0,0,.11-1.08,6,6,0,0,0-1.59-3.95l.52-3.7a38.5,38.5,0,0,0,32-36Z"/><path class="cls-4" d="M285.35,296.94l5.28,2.29s1.12-4.63,1.28-5.72-.38-1.29-.77-1.43l-2.56-.84a1.56,1.56,0,0,0-1.72.86A45.77,45.77,0,0,0,285.35,296.94Z"/><path class="cls-4" d="M291.3,299.49l5.35,2.16,1.33-6.31a1.79,1.79,0,0,0-.74-1.61,18.7,18.7,0,0,0-3.11-.91s-1.2-.41-1.74,1.8S291.3,299.49,291.3,299.49Z"/><path class="cls-4" d="M297.88,299.06l-1.23,6.16s-.32,1.94.61,2.71a2.77,2.77,0,0,0,4.58-1.31c.87-2.33,2.29-9.44,2.29-9.44a1.88,1.88,0,0,0-.07-1.15,1.34,1.34,0,0,0-.91-.77l-2.66-.69a1.69,1.69,0,0,0-1.87,1.13Z"/><path class="cls-4" d="M304.1,300.71l-1,4.55s-.49,1.89.49,2.67c1.46,1.15,3.73,1.11,4.56-1.14A64.26,64.26,0,0,0,310,299s0-.07,0-.1a.13.13,0,0,0,0-.06,1.58,1.58,0,0,0-1.17-1.82l-1.9-.51a1.67,1.67,0,0,0-.83,0,1.53,1.53,0,0,0-1.2,1.15Z"/><path class="cls-4" d="M309.74,305.93a16,16,0,0,0,.2-3.57.07.07,0,0,0-.14,0l-.9,4.06a3.25,3.25,0,0,1-.3.86,3.15,3.15,0,0,1-2.36,1.91,3.45,3.45,0,0,1-3.86-2.22,3.25,3.25,0,0,1-1.85,2.06,3.78,3.78,0,0,1-3.67-.68,2.61,2.61,0,0,1-.79-2.37c-.92,1.61-3.89,1.4-3.89,1.4,4.33,2.6,5.45,4.66,5.73,5.49A19.56,19.56,0,0,0,286.49,306a2.72,2.72,0,0,1-.89-.62c.17.14,4,1.16,4,1.16,7.66,1.49,7-4.13,7-4.13-5.45-1.93-10.48-4.53-11.77-4.86s-1.72.13-2.06.7a110.39,110.39,0,0,0-3.71,11c.06.58,3.45,6.7,6.27,10.51,2.68,3.62,2.28,3,3.12,4.47.5.87.62,2.42-.08,9.79h16.43a1.87,1.87,0,0,1,1.92-1.85c.13,0,.25,0,.36,0-.16-3.8-.29-6.71-.33-7.51a3.84,3.84,0,0,0,1.12-1.28c1.4-2.49,1.38-6.95,1.41-8.5,0-.66,0-2,0-3A39.94,39.94,0,0,1,309.74,305.93Z"/><path class="cls-4" d="M295.57,336a24.59,24.59,0,1,1,24.59-24.59A24.62,24.62,0,0,1,295.57,336Zm0-47.06a22.48,22.48,0,1,0,22.48,22.47A22.5,22.5,0,0,0,295.57,289Z"/><path d="M304.19,529.61c-126.31,0-229.08-102.05-229.08-227.48S177.88,74.65,304.19,74.65s229.07,102,229.07,227.48S430.5,529.61,304.19,529.61Zm0-413.83c-103.64,0-187.95,83.59-187.95,186.35s84.31,186.35,188,186.35,188-83.59,188-186.35S407.83,115.78,304.19,115.78Z"/><path class="cls-2" d="M461,191.24l-2.8,6-7.65,48.28s12.27,31.58,15.09,38,9.66,15.89,11.26,19.11,6.24,11.06,7.85,13.88,10.49,9.32,10.49,9.32,22.8,9.21,34.42-15.14a18.1,18.1,0,0,1,2.36-12.49L508.32,187s-8.19,1.46-12.95-4.31C495.37,182.73,483.15,171.22,461,191.24Z"/><path class="cls-2" d="M529.69,310.74s1.54-6.14,4.95-6.87l2-9.64L534,265.66l-3.16-37.81L522.26,211l-5.7-5-9-1,2.68,26Z"/><path class="cls-2" d="M456.53,194.58l4.5-3.34,4-.47-.88,6.77c-.06.54-5.36,4.43-5.36,4.43l-2.68-.67Z"/><path class="cls-2" d="M94.29,204.35,98,199.77s32.9-8.73,45.36,8.26l1.29.91,1.1,6.24L120,217.29,90.13,210.9Z"/><path class="cls-2" d="M94.29,204.35c-8.41,12-24.09,45-24.09,45l12.67,18.11-5.43,10,.06,10.22s5.67,12.06,39.72,41.19l7.49,1.63,21-115.39C128.11,212.11,110.77,209.49,94.29,204.35Z"/><polygon class="cls-2" points="117.22 328.94 118.64 329.86 118.64 328.36 117.22 328.36 117.22 328.94"/><path class="cls-2" d="M86.78,299.92l-9.69-12.64-3.35-3.73s-.88-.61-.38-2.11a33.37,33.37,0,0,1,4.61-9l.35-.65a40.12,40.12,0,0,1-7.3-1.14l-.82-2.54H80.48l5.08,1.41s.86,5.58.86,5.66-.15,6.66-.15,6.66l1.93,14Z"/><path class="cls-2" d="M76.47,268.62s-.17-7.65-.17-7.78,1.94-1.58,2.65-1.31,5.26,1.64,5.83,2.75a25.82,25.82,0,0,1,1.78,5.43c.07.94-2.42,2.88-2.42,2.88l-4.22-1.17Z"/><path class="cls-2" d="M355.4,480.25s9,18.29,41,36.9l22.23-13.64s-12.15-21.7-23.34-34.16l-9.26-14L351.2,473.45Z"/><path class="cls-2" d="M420.4,509.93a27.62,27.62,0,0,0-6.61-14.58l-1,8.89,2.62,3.95Z"/><path class="cls-2" d="M183.4,445.43l-28.61,32.51,5.46,11.52s21.06-9.26,34.7-6.65c0,0,8.51-12.87,30.24-9.95,0,0,6.08-.46,9.28-5.41l-37.92-35.4Z"/></svg>